# xmcd CD database file
#
# Track frame offsets:
#	150
#	28702
#	43767
#	69260
#	87317
#	105895
#	130720
#	152450
#	177417
#	196275
#	232777
#	256842
#	285247
#
# Disc length: 4242 seconds
#
# Revision: 4
# Processed by: cddbd v1.5.2PL0 Copyright (c) Steve Scherf et al.
# Submitted via: CDex 1.70beta2
#
DISCID=9710900d
DTITLE=Joachim-Ernst Berendt - Stories for Friends - 75 Years (2)
DYEAR=1900
DGENRE=Jazz
TTITLE0=Peter Michael Hamel - Wo Gott wohnt
TTITLE1=Max Roach - The Drum also Waltzes
TTITLE2=Markus Stockhausen - Kakua
TTITLE3=Philip Catherine - Here and Now
TTITLE4=Wolfgang Dauenr - Albert Einstein
TTITLE5=Karin Krog and John Surman - Streetplayer and Nightingale
TTITLE6=Paul Horn - A Zen Poem
TTITLE7=Michael Vetter - Sarkis trumt
TTITLE8=Wolfgang Puschnig and Linda Sharrok - Your Tea?
TTITLE9=Paul Giger - Grab bei Dir
TTITLE10=Jasper van't Hoff - Key in the Heart
TTITLE11=Vienna Art Ensemble - Zu Dunkel
TTITLE12=Modern Jazz Quartett - J.B. Blues
EXTD=
EXTT0=
EXTT1=
EXTT2=
EXTT3=
EXTT4=
EXTT5=
EXTT6=
EXTT7=
EXTT8=
EXTT9=
EXTT10=
EXTT11=
EXTT12=
PLAYORDER=
